<?xml version="1.0" encoding="utf-8"?>
<svg xmlns="http://www.w3.org/2000/svg" xmlns:xlink="http://www.w3.org/1999/xlink">
  <symbol fill="none" viewBox="0 0 24 24" stroke-width="1.5" stroke="currentColor" id="check"
    xmlns="http://www.w3.org/2000/svg">
    <path stroke-linecap="round" stroke-linejoin="round" d="m4.5 12.75 6 6 9-13.5" />
  </symbol>
  <symbol fill="none" viewBox="0 0 24 24" stroke-width="1.5" stroke="currentColor" id="chevron-right"
    xmlns="http://www.w3.org/2000/svg">
    <path stroke-linecap="round" stroke-linejoin="round" d="m8.25 4.5 7.5 7.5-7.5 7.5" />
  </symbol>
  <symbol fill="none" viewBox="0 0 24 24" stroke-width="1.5" stroke="currentColor" id="code-bracket"
    xmlns="http://www.w3.org/2000/svg">
    <path stroke-linecap="round" stroke-linejoin="round"
      d="M17.25 6.75 22.5 12l-5.25 5.25m-10.5 0L1.5 12l5.25-5.25m7.5-3-4.5 16.5" />
  </symbol>
  <symbol fill="none" viewBox="0 0 24 24" stroke-width="1.5" stroke="currentColor" class="bsize-6"
    id="exclamation-circle" xmlns="http://www.w3.org/2000/svg">
    <path stroke-linecap="round" stroke-linejoin="round"
      d="M12 9v3.75m9-.75a9 9 0 1 1-18 0 9 9 0 0 1 18 0Zm-9 3.75h.008v.008H12v-.008Z" />
  </symbol>
  <symbol fill="none" viewBox="0 0 24 24" stroke-width="1.5" stroke="currentColor" id="x-mark"
    xmlns="http://www.w3.org/2000/svg">
    <path stroke-linecap="round" stroke-linejoin="round" d="M6 18 18 6M6 6l12 12" />
  </symbol>
</svg>